# xmcd
#
# Track frame offsets:
#	150
#	21860
#	57074
#	75705
#	109191
#	141436
#	153522
#	187861
#
# Disc length: 2700 seconds
#
# Revision: 0
# Processed by: cddbd v1.5.2PL0 Copyright (c) Steve Scherf et al.
# Submitted via: EasyCDDAExtractor 15.2.1.1
#
DISCID=610a8a08
DTITLE=Dreamboogie - I'm Ready
DYEAR=2011
DGENRE=Blues
TTITLE0=Spoonful
TTITLE1=My Baby Caught The Train/Who's Been Talkin'
TTITLE2=I'm Ready
TTITLE3=Little By Little
TTITLE4=Crossroads
TTITLE5=A Girl Of Many Words
TTITLE6=Someone Else Is Steppin' In
TTITLE7=Goin' Down
EXTD=
EXTT0=
EXTT1=
EXTT2=
EXTT3=
EXTT4=
EXTT5=
EXTT6=
EXTT7=
PLAYORDER=
